<?xml version="1.0" standalone="no"?>
<!DOCTYPE svg PUBLIC "-//W3C//DTD SVG 1.1//EN" "http://www.w3.org/Graphics/SVG/1.1/DTD/svg11.dtd" >
<svg xmlns="http://www.w3.org/2000/svg">
<metadata>Generated by IcoMoon</metadata>
<defs>
<font id="icomoon" horiz-adv-x="1024">
<font-face units-per-em="1024" ascent="960" descent="-64" />
<missing-glyph horiz-adv-x="1024" />
<glyph unicode="&#x20;" horiz-adv-x="512" d="" />
<glyph unicode="&#xe900;" horiz-adv-x="1134" d="M630.857-43.886c-10.971 0-18.286 5.486-21.943 12.8-20.114-1.829-40.229-3.657-62.171-3.657-265.143-1.829-482.743 215.771-482.743 482.743s217.6 484.571 484.571 484.571c266.971 0 484.571-217.6 484.571-484.571 0-65.829-12.8-128-36.571-184.686h27.429c21.943 56.686 34.743 118.857 34.743 184.686-1.829 281.6-230.4 510.171-510.171 510.171-281.6 0-510.171-228.571-510.171-510.171s228.571-510.171 510.171-510.171c43.886 0 87.771 5.486 128 16.457h-45.714z" />
<glyph unicode="&#xe901;" horiz-adv-x="1134" d="M341.943 106.057c-1.829 0-3.657 0-5.486 1.829-118.857 73.143-190.171 201.143-190.171 340.114 0 221.257 181.029 402.286 402.286 402.286 54.857 0 109.714-10.971 159.086-32.914 5.486-1.829 7.314-7.314 5.486-12.8s-7.314-7.314-12.8-5.486c-47.543 21.943-98.743 32.914-151.771 32.914-212.114 0-384-171.886-384-384 0-133.486 67.657-256 181.029-325.486 3.657-1.829 5.486-9.143 3.657-12.8s-3.657-3.657-7.314-3.657z" />
<glyph unicode="&#xe902;" horiz-adv-x="1134" d="M930.743 448c0-65.829-16.457-129.829-47.543-184.686h21.943c29.257 54.857 45.714 117.029 45.714 184.686 0 56.686-10.971 111.543-34.743 162.743-1.829 5.486-7.314 7.314-12.8 5.486s-7.314-7.314-5.486-12.8c21.943-47.543 32.914-100.571 32.914-155.429z" />
<glyph unicode="&#xe903;" horiz-adv-x="1134" d="M627.2 73.143c-25.6-5.486-53.029-9.143-80.457-9.143-45.714 0-89.6 7.314-131.657 23.771-5.486 1.829-10.971 0-12.8-5.486s0-10.971 5.486-12.8c43.886-16.457 89.6-23.771 137.143-23.771 25.6 0 51.2 1.829 74.971 7.314l7.314 20.114z" />
<glyph unicode="&#xe904;" horiz-adv-x="1134" d="M874.057 658.286c-3.657 0-5.486 1.829-7.314 3.657-25.6 38.4-58.514 73.143-96.914 100.571-3.657 3.657-5.486 9.143-1.829 12.8s9.143 5.486 12.8 1.829c40.229-29.257 74.971-64 102.4-104.229 3.657-3.657 1.829-10.971-1.829-12.8s-5.486-1.829-7.314-1.829z" />
<glyph unicode="&#xe905;" horiz-adv-x="1134" d="M720.457-12.8l56.686 246.857c3.657 16.457 21.943 31.086 38.4 31.086h-113.371c-16.457 0-34.743-14.629-38.4-31.086l-56.686-246.857c-3.657-16.457 7.314-31.086 23.771-31.086h113.371c-16.457 0-27.429 12.8-23.771 31.086z" />
<glyph unicode="&#xe906;" horiz-adv-x="1134" d="M952.686 265.143h122.514c16.457 0 27.429-14.629 23.771-31.086l-56.686-246.857c-3.657-16.457-21.943-31.086-38.4-31.086h-122.514c-16.457 0-27.429 14.629-23.771 31.086l56.686 245.029c3.657 18.286 20.114 32.914 38.4 32.914v0 0z" />
<glyph unicode="&#xe907;" horiz-adv-x="1134" d="M855.771-12.8l58.514 245.029c3.657 16.457 21.943 31.086 38.4 31.086h-135.314c-16.457 0-34.743-14.629-38.4-31.086l-56.686-246.857c-3.657-16.457 7.314-31.086 23.771-31.086h135.314c-18.286 1.829-29.257 14.629-25.6 32.914z" />
<glyph unicode="&#xe908;" horiz-adv-x="1134" d="M735.086 184.686c-12.8 0-16.457 0-18.286 0 0-1.829-9.143-42.057-9.143-42.057-1.829-7.314-3.657-12.8-7.314-16.457-1.829-1.829-5.486-3.657-9.143-3.657-5.486 0-9.143 3.657-9.143 7.314v1.829c0 0 1.829 10.971 1.829 10.971s9.143 36.571 10.971 40.229c0 0 0 0 0 0-18.286 0-20.114 0-20.114 0s0-1.829 0-1.829l-9.143-40.229v-3.657l-1.829-10.971c0-3.657 0-5.486 1.829-9.143 3.657-7.314 16.457-9.143 21.943-9.143 9.143 0 16.457 1.829 21.943 5.486 9.143 5.486 12.8 14.629 14.629 21.943l1.829 3.657c-1.829 1.829 7.314 40.229 9.143 45.714 0-1.829 0 0 0 0z" />
<glyph unicode="&#xe909;" horiz-adv-x="1134" d="M766.171 153.6c-1.829 0-5.486 0-9.143-1.829-1.829 0-1.829-1.829-3.657-1.829l1.829 3.657c-7.314-1.829-9.143-1.829-16.457-3.657v0c0-7.314-1.829-12.8-5.486-25.6-1.829-5.486-1.829-9.143-3.657-14.629v0c7.314 0 9.143 0 16.457 0v0c0 3.657 1.829 5.486 1.829 12.8 0 3.657 1.829 12.8 3.657 16.457 1.829 0 3.657 1.829 5.486 1.829 3.657 0 3.657-3.657 3.657-3.657 0-1.829-1.829-9.143-3.657-14.629v-3.657c0-3.657-1.829-5.486-1.829-9.143v0c7.314 0 9.143 0 16.457 0v0c1.829 7.314 1.829 9.143 3.657 18.286l1.829 3.657c1.829 9.143 3.657 12.8 1.829 16.457-5.486 5.486-9.143 5.486-12.8 5.486z" />
<glyph unicode="&#xe90a;" horiz-adv-x="1134" d="M822.857 109.714c7.314 0 14.629 1.829 20.114 7.314 3.657 5.486 5.486 10.971 7.314 14.629 1.829 9.143 0 14.629-1.829 16.457-3.657 3.657-9.143 5.486-14.629 5.486-3.657 0-12.8 0-18.286-7.314-5.486-3.657-7.314-10.971-9.143-16.457s-3.657-16.457 7.314-20.114c1.829 0 7.314 0 9.143 0zM822.857 129.829c1.829 7.314 3.657 12.8 9.143 12.8 3.657 0 3.657-3.657 1.829-10.971 0-1.829-1.829-7.314-3.657-10.971-1.829-1.829-3.657-3.657-5.486-3.657 0 0-3.657 0-3.657 3.657 0 5.486 1.829 7.314 1.829 9.143z" />
<glyph unicode="&#xe90b;" horiz-adv-x="1134" d="M866.743 109.714v0c1.829 5.486 1.829 5.486 3.657 14.629 0 3.657 1.829 12.8 3.657 16.457 1.829 0 3.657 1.829 5.486 1.829 3.657 0 3.657-3.657 3.657-3.657 0-1.829-1.829-9.143-3.657-14.629v-3.657c0-3.657-1.829-5.486-1.829-9.143v0c7.314 0 9.143 0 16.457 0v0c1.829 7.314 1.829 9.143 3.657 18.286l1.829 3.657c1.829 9.143 3.657 12.8 1.829 16.457s-5.486 5.486-9.143 5.486c-1.829 0-5.486 0-9.143-1.829-1.829 0-1.829-1.829-3.657-1.829l1.829 3.657c-7.314-1.829-9.143-1.829-16.457-3.657v0c0-7.314-1.829-12.8-5.486-25.6-1.829-5.486-1.829-9.143-3.657-14.629v0c3.657-1.829 5.486-1.829 10.971-1.829z" />
<glyph unicode="&#xe90c;" horiz-adv-x="1134" d="M961.829 129.829c-1.829-5.486-3.657-16.457 7.314-20.114 3.657-1.829 5.486-1.829 9.143-1.829s5.486 1.829 7.314 3.657c0 0 0-1.829 0-1.829v0c7.314 0 9.143 0 16.457 0v0c1.829 7.314 1.829 12.8 5.486 25.6 1.829 5.486 3.657 10.971 3.657 18.286v0c-7.314-1.829-9.143-1.829-16.457-3.657v0c0 0 0-1.829 0-1.829-1.829 1.829-1.829 3.657-5.486 5.486s-10.971 0-18.286-7.314c-5.486-3.657-9.143-10.971-9.143-16.457zM978.286 129.829c1.829 7.314 3.657 12.8 9.143 12.8 3.657 0 5.486-3.657 3.657-9.143 0-1.829 0-1.829 0-3.657s-1.829-3.657-1.829-7.314c0-1.829-1.829-1.829-1.829-3.657-1.829 0-5.486 0-7.314 0 0 0-3.657 0-3.657 3.657 0 1.829 0 5.486 1.829 7.314z" />
<glyph unicode="&#xe90d;" horiz-adv-x="1134" d="M921.6 109.714c0 1.829 3.657 14.629 3.657 14.629s1.829 9.143 1.829 9.143c0 0 0 1.829 1.829 1.829h1.829c10.971 0 21.943 0 31.086 7.314 5.486 3.657 10.971 10.971 12.8 20.114 0 1.829 0 3.657 0 7.314s0 5.486-1.829 9.143c-3.657 5.486-12.8 7.314-23.771 7.314 0 0-5.486 0-5.486 0-12.8 0-18.286 0-20.114 0 0-1.829 0-1.829 0-1.829s-9.143-25.6-9.143-25.6c0 0-10.971-47.543-12.8-49.371 12.8 0 16.457 0 20.114 0zM928.914 149.943c0 0 5.486 21.943 5.486 21.943v1.829h1.829c0 0 10.971 0 10.971-1.829 3.657-1.829 5.486-5.486 5.486-10.971-1.829-5.486-3.657-9.143-9.143-10.971-3.657-1.829-7.314-1.829-10.971-1.829l-3.657 1.829z" />
<glyph unicode="&#xe90e;" horiz-adv-x="1134" d="M1062.4 153.6v0c-9.143 0-9.143-1.829-16.457-1.829v0c0 0 0 0 0 0v0c-5.486-12.8-5.486-9.143-9.143-18.286 0 0 0 0 0 1.829l-1.829 20.114c-7.314-1.829-7.314-1.829-16.457-1.829v0c0 0 0 0 0 0v0c1.829-5.486 0-3.657 1.829-10.971 0-3.657 1.829-7.314 1.829-10.971 0-5.486 1.829-9.143 1.829-18.286-5.486-9.143-5.486-10.971-10.971-18.286v0l-3.657-5.486c0 0 0-1.829-1.829-1.829 0 0-1.829 0-1.829 0h-1.829l-3.657-9.143h9.143c5.486 0 9.143 1.829 10.971 5.486l5.486 10.971c5.486 5.486 36.571 58.514 36.571 58.514z" />
<glyph unicode="&#xe90f;" horiz-adv-x="1134" d="M802.743 144.457c-3.657 0-5.486-1.829-9.143-1.829-1.829 0-5.486 0-9.143-1.829v0 0c0-3.657 0-5.486-1.829-7.314 0-3.657-1.829-5.486-1.829-10.971 0-3.657-1.829-5.486-1.829-5.486 0-1.829-1.829-1.829-1.829-5.486v0 0c3.657 0 5.486 0 7.314 0s5.486 0 9.143 0v0 0c0 3.657 0 3.657 1.829 5.486 0 1.829 0 3.657 1.829 10.971 0 3.657 1.829 5.486 1.829 9.143 1.829 1.829 1.829 3.657 3.657 7.314v0 0z" />
<glyph unicode="&#xe910;" horiz-adv-x="1134" d="M802.743 157.257c-3.657 1.829-9.143 1.829-14.629-1.829-3.657-3.657-5.486-7.314-1.829-9.143s9.143-1.829 14.629 1.829c3.657 3.657 3.657 7.314 1.829 9.143z" />
<glyph unicode="&#xe911;" horiz-adv-x="1134" d="M961.829 31.086h-3.657l14.629 49.371h5.486l1.829 5.486v-5.486c0-3.657 1.829-7.314 9.143-5.486h9.143l3.657 9.143h-3.657c-1.829 0-1.829 0-1.829 1.829v5.486h-16.457c-5.486 0-20.114 0-23.771-1.829s-7.314-3.657-7.314-3.657l1.829 5.486h-14.629l-3.657-10.971-14.629-51.2h-3.657l-3.657-9.143h29.257l-1.829-3.657h14.629l1.829 3.657h3.657l3.657 10.971zM943.543 31.086h-10.971l3.657 10.971h10.971l-3.657-10.971zM949.029 53.029c0 0-3.657 0-5.486-1.829-1.829 0-7.314-3.657-7.314-3.657l3.657 12.8h10.971l-1.829-7.314zM949.029 71.314c-1.829 0-7.314-1.829-7.314-1.829l3.657 12.8h10.971l-3.657-9.143c3.657-1.829 0-1.829-3.657-1.829z" />
<glyph unicode="&#xe912;" horiz-adv-x="1134" d="M970.971 62.171h16.457l-1.829-7.314h-16.457l-3.657-9.143h14.629l-10.971-16.457c0-1.829-1.829-1.829-1.829-1.829s-1.829 0-3.657 0h-3.657l-3.657-9.143h10.971c5.486 0 9.143 1.829 10.971 5.486l7.314 10.971 1.829-10.971c0-1.829 1.829-3.657 3.657-3.657s1.829-1.829 3.657-1.829c1.829 0 3.657 0 3.657 0h5.486l3.657 10.971h-1.829c-1.829 0-3.657 0-3.657 0s0 1.829 0 1.829l-1.829 10.971h-7.314l3.657 3.657h16.457l1.829 9.143h-16.457l1.829 7.314h16.457l3.657 9.143h-45.714l-3.657-9.143z" />
<glyph unicode="&#xe913;" horiz-adv-x="1134" d="M830.171 29.257l3.657 12.8h16.457l3.657 9.143h-16.457l1.829 7.314h16.457l3.657 9.143h-38.4l-3.657-9.143h9.143l-3.657-7.314h-9.143l-3.657-9.143h9.143l-5.486-16.457c0-1.829 0-3.657 1.829-3.657 0-1.829 1.829-1.829 3.657-1.829s1.829 0 3.657 0h18.286l3.657 10.971-9.143-3.657c-1.829 0-5.486 0-5.486 1.829z" />
<glyph unicode="&#xe914;" horiz-adv-x="1134" d="M832 91.429l-3.657-7.314c0-1.829-1.829-1.829-1.829-3.657 0 0-1.829 0-3.657 0h-1.829l-3.657-9.143h5.486c3.657 0 5.486 1.829 7.314 1.829s1.829 0 1.829 1.829l1.829 1.829h21.943l3.657 9.143h-16.457l3.657 5.486h-14.629z" />
<glyph unicode="&#xe915;" horiz-adv-x="1134" d="M864.914 29.257c0 0 0 1.829 0 3.657l5.486 20.114h21.943c3.657 0 5.486 0 7.314 0s3.657 0 5.486 1.829c1.829 1.829 3.657 1.829 3.657 3.657 1.829 1.829 1.829 3.657 3.657 9.143l7.314 25.6h-21.943c0 0-7.314-1.829-9.143-1.829-3.657-1.829-7.314-5.486-7.314-5.486l1.829 7.314h-14.629l-20.114-65.829c0-1.829-1.829-3.657-1.829-5.486s1.829-1.829 1.829-3.657c1.829 0 3.657 0 3.657 0 1.829 0 3.657 0 7.314 0h10.971l3.657 10.971h-9.143c0-1.829 0 0 0 0zM879.543 80.457h21.943l-1.829-5.486c0 0-10.971 0-12.8 0-7.314-1.829-12.8-5.486-12.8-5.486l5.486 10.971zM874.057 65.829h21.943v-5.486c0 0 0 0-3.657 0h-20.114l1.829 5.486z" />
<glyph unicode="&#xe916;" horiz-adv-x="1134" d="M896 45.714c0 0 0 0 0 0-1.829-1.829-1.829-1.829-3.657-1.829h-3.657v5.486h-12.8v-27.429c0-1.829 0-3.657 1.829-3.657 1.829-1.829 5.486-1.829 10.971-1.829h9.143l3.657 9.143h-9.143c0 0 0 0-1.829 0 0 0 0 0 0 1.829v7.314h7.314c3.657 0 5.486 1.829 7.314 1.829 1.829 1.829 1.829 1.829 1.829 3.657l1.829 5.486h-12.8z" />
<glyph unicode="&#xe917;" horiz-adv-x="1134" d="M724.114 548.571h-73.143c-1.829 0-3.657 1.829-3.657 3.657v73.143c0 23.771-18.286 42.057-42.057 42.057h-113.371c-23.771 0-42.057-18.286-42.057-42.057v-73.143c0-1.829-1.829-3.657-3.657-3.657h-73.143c-23.771 0-42.057-18.286-42.057-42.057v-113.371c0-23.771 18.286-42.057 42.057-42.057h73.143c1.829 0 3.657-1.829 3.657-3.657v-73.143c0-23.771 18.286-42.057 42.057-42.057h113.371c23.771 0 42.057 18.286 42.057 42.057v73.143c0 1.829 1.829 3.657 3.657 3.657h73.143c23.771 0 42.057 18.286 42.057 42.057v113.371c1.829 21.943-18.286 42.057-42.057 42.057zM727.771 391.314c0-1.829-1.829-3.657-3.657-3.657h-12.8c0 0 0 0 0 0h-98.743c0 0 0 0 0 0v0c-1.829 0-3.657-1.829-3.657-3.657v-111.543c0-1.829-1.829-3.657-3.657-3.657h-113.371c-1.829 0-3.657 1.829-3.657 3.657v109.714c0 1.829 0 1.829-1.829 1.829 0 0-1.829 1.829-1.829 1.829h-100.571c0 0 0 0 0 0h-12.8c-1.829 0-3.657 1.829-3.657 3.657v113.371c0 1.829 1.829 3.657 3.657 3.657h111.543c1.829 0 3.657 1.829 3.657 3.657v0c0 0 0 0 0 0v115.2c0 1.829 1.829 3.657 3.657 3.657h113.371c1.829 0 3.657-1.829 3.657-3.657v-111.543c0-1.829 0-1.829 1.829-1.829 0 0 1.829-1.829 1.829-1.829h111.543c1.829 0 3.657-1.829 3.657-3.657v-115.2z" />
<glyph unicode="&#xe918;" glyph-name="report" d="M708.923 674.462h-393.846c-21.662 0-39.385-17.723-39.385-39.385v-19.692h472.615v19.692c0 21.662-17.723 39.385-39.385 39.385zM584.862 353.477c-1.969-1.969-3.938-3.938-3.938-5.908 1.969 1.969 1.969 3.938 3.938 5.908zM571.077 418.462c0-32.627-26.45-59.077-59.077-59.077s-59.077 26.45-59.077 59.077c0 32.627 26.45 59.077 59.077 59.077s59.077-26.45 59.077-59.077zM275.692 576v-315.077c0-21.662 17.723-39.385 39.385-39.385h393.846c21.662 0 39.385 17.723 39.385 39.385v315.077h-472.615zM649.846 308.185c-3.938-5.908-9.846-7.877-15.754-7.877-3.938 0-7.877 1.969-11.815 3.938l-51.2 37.415c-15.754-11.815-37.415-19.692-59.077-19.692-53.169 0-98.462 43.323-98.462 98.462 0 53.169 43.323 98.462 98.462 98.462s98.462-43.323 98.462-98.462c0-17.723-3.938-33.477-11.815-47.262l49.231-35.446c7.877-7.877 9.846-21.662 1.969-29.538zM512-64c-281.6 0-512 230.4-512 512 0 283.569 230.4 512 512 512s512-230.4 512-512-230.4-512-512-512zM512 940.308c-271.754 0-492.308-220.554-492.308-492.308s220.554-492.308 492.308-492.308 492.308 220.554 492.308 492.308-220.554 492.308-492.308 492.308z" />
<glyph unicode="&#xe919;" glyph-name="clinic" d="M512 723.692c-151.631 0-275.692-124.062-275.692-275.692s124.062-275.692 275.692-275.692 275.692 124.062 275.692 275.692-124.062 275.692-275.692 275.692zM590.769 487.385c11.815 0 19.692-7.877 19.692-19.692s-7.877-19.692-19.692-19.692h-59.077v-19.692h59.077c11.815 0 19.692-7.877 19.692-19.692s-7.877-19.692-19.692-19.692h-59.077v-59.077c0-11.815-7.877-19.692-19.692-19.692s-19.692 7.877-19.692 19.692v59.077h-59.077c-11.815 0-19.692 7.877-19.692 19.692s7.877 19.692 19.692 19.692h59.077v19.692h-59.077c-11.815 0-19.692 7.877-19.692 19.692s7.877 19.692 19.692 19.692h51.2l-64.985 64.985c-7.877 7.877-7.877 19.692 0 27.569s19.692 7.877 27.569 0l64.985-64.985 66.954 66.954c7.877 7.877 19.692 7.877 27.569 0s7.877-19.692 0-27.569l-66.954-66.954h51.2zM512-64c-281.6 0-512 230.4-512 512 0 283.569 230.4 512 512 512s512-230.4 512-512-230.4-512-512-512zM512 940.308c-271.754 0-492.308-220.554-492.308-492.308s220.554-492.308 492.308-492.308 492.308 220.554 492.308 492.308-220.554 492.308-492.308 492.308z" />
<glyph unicode="&#xe91d;" glyph-name="more" d="M512-64c-281.6 0-512 230.4-512 512 0 283.569 230.4 512 512 512s512-230.4 512-512c0-281.6-230.4-512-512-512zM512 940.308c-271.754 0-492.308-220.554-492.308-492.308s220.554-492.308 492.308-492.308c271.754 0 492.308 220.554 492.308 492.308s-220.554 492.308-492.308 492.308zM452.923 684.308h-137.846c-21.662 0-39.385-17.723-39.385-39.385v-137.846c0-21.662 17.723-39.385 39.385-39.385h137.846c21.662 0 39.385 17.723 39.385 39.385v137.846c0 21.662-17.723 39.385-39.385 39.385zM708.923 684.308h-137.846c-21.662 0-39.385-17.723-39.385-39.385v-137.846c0-21.662 17.723-39.385 39.385-39.385h137.846c21.662 0 39.385 17.723 39.385 39.385v137.846c0 21.662-17.723 39.385-39.385 39.385zM452.923 428.308h-137.846c-21.662 0-39.385-17.723-39.385-39.385v-137.846c0-21.662 17.723-39.385 39.385-39.385h137.846c21.662 0 39.385 17.723 39.385 39.385v137.846c0 21.662-17.723 39.385-39.385 39.385zM708.923 428.308h-137.846c-21.662 0-39.385-17.723-39.385-39.385v-137.846c0-21.662 17.723-39.385 39.385-39.385h137.846c21.662 0 39.385 17.723 39.385 39.385v137.846c0 21.662-17.723 39.385-39.385 39.385z" />
<glyph unicode="&#xe91e;" d="M513.067-64c-341.333 0-512 170.667-512 512s170.667 512 512 512c341.333 0 512-170.667 512-512s-170.667-512-512-512z" />
<glyph unicode="&#xe91f;" d="M662.4 602.667h-42.667v37.333c0 14.933-11.733 26.667-26.667 26.667s-26.667-11.733-26.667-26.667v-37.333h-96v37.333c0 14.933-11.733 26.667-26.667 26.667s-26.667-11.733-26.667-26.667v-37.333h-53.333c-23.467 0-42.667-19.2-42.667-42.667v-352c0-23.467 19.2-42.667 42.667-42.667h298.667c23.467 0 42.667 19.2 42.667 42.667v352c0 23.467-19.2 42.667-42.667 42.667zM587.733 357.333h-53.333v-53.333c0-11.733-9.6-21.333-21.333-21.333s-21.333 9.6-21.333 21.333v53.333h-53.333c-11.733 0-21.333 9.6-21.333 21.333s9.6 21.333 21.333 21.333h53.333v53.333c0 11.733 9.6 21.333 21.333 21.333s21.333-9.6 21.333-21.333v-53.333h53.333c11.733 0 21.333-9.6 21.333-21.333s-9.6-21.333-21.333-21.333z" />
<glyph unicode="&#xe920;" glyph-name="register" d="M443.077 763.077c-15.754 0-29.538-13.785-29.538-29.538v-118.154c0-15.754 13.785-29.538 29.538-29.538s29.538 13.785 29.538 29.538v118.154c0 17.723-13.785 29.538-29.538 29.538zM580.923 763.077c-15.754 0-29.538-13.785-29.538-29.538v-137.846c0-15.754 13.785-29.538 29.538-29.538s29.538 13.785 29.538 29.538v137.846c0 17.723-13.785 29.538-29.538 29.538zM512-64c-281.6 0-512 230.4-512 512 0 283.569 230.4 512 512 512s512-230.4 512-512c0-281.6-230.4-512-512-512zM512 940.308c-271.754 0-492.308-220.554-492.308-492.308s220.554-492.308 492.308-492.308c271.754 0 492.308 220.554 492.308 492.308s-220.554 492.308-492.308 492.308zM649.846 664.615h-275.692c-43.323 0-78.769-35.446-78.769-78.769v-315.077c0-43.323 35.446-78.769 78.769-78.769h275.692c43.323 0 78.769 35.446 78.769 78.769v315.077c0 43.323-35.446 78.769-78.769 78.769zM590.769 408.615h-59.077v-59.077c0-11.815-7.877-19.692-19.692-19.692s-19.692 7.877-19.692 19.692v59.077h-59.077c-11.815 0-19.692 7.877-19.692 19.692s7.877 19.692 19.692 19.692h59.077v59.077c0 11.815 7.877 19.692 19.692 19.692s19.692-7.877 19.692-19.692v-59.077h59.077c11.815 0 19.692-7.877 19.692-19.692s-7.877-19.692-19.692-19.692z" />
<glyph unicode="&#xe921;" d="M513.067-64c-341.333 0-512 170.667-512 512s170.667 512 512 512c341.333 0 512-170.667 512-512s-170.667-512-512-512z" />
<glyph unicode="&#xe922;" d="M513.067 682.667c-130.133 0-234.667-104.533-234.667-234.667s104.533-234.667 234.667-234.667c130.133 0 234.667 104.533 234.667 234.667 0 129.067-104.533 234.667-234.667 234.667zM593.067 416c8.533 0 16-7.467 16-16s-7.467-16-16-16h-58.667v-37.333c0-8.533-7.467-16-16-16s-16 7.467-16 16v37.333h-58.667c-8.533 0-16 7.467-16 16s7.467 16 16 16h58.667v42.667h-58.667c-8.533 0-16 7.467-16 16s7.467 16 16 16h34.133l-37.333 37.333c-6.4 6.4-6.4 16 0 22.4s16 6.4 22.4 0l53.333-53.333 52.267 52.267c6.4 6.4 17.067 6.4 23.467 0s6.4-17.067 0-23.467l-34.133-35.2h35.2c8.533 0 16-7.467 16-16s-7.467-16-16-16h-58.667v-42.667h58.667z" />
<glyph unicode="&#xe926;" d="M513.067-64c-341.333 0-512 170.667-512 512s170.667 512 512 512c341.333 0 512-170.667 512-512s-170.667-512-512-512z" />
<glyph unicode="&#xe927;" d="M577.067 486.4c0-1.067 0-1.067 0-1.067 0-37.333-50.133-68.267-112-68.267-61.867-1.067-113.067 29.867-113.067 68.267 0 4.267 1.067 8.533 2.133 11.733-53.333-35.2-89.6-97.067-89.6-167.467 0-109.867 32-149.333 199.467-149.333 155.733 0 187.733 39.467 187.733 149.333 0 64-28.8 120.533-74.667 156.8zM450.133 466.133h28.8c46.933 0 85.333 38.4 85.333 85.333v66.133c0 46.933-38.4 85.333-85.333 85.333h-28.8c-46.933 0-85.333-38.4-85.333-85.333v-66.133c0-46.933 38.4-85.333 85.333-85.333z" />
<glyph unicode="&#xe928;" d="M654.933 510.933c38.4 0 69.333 30.933 69.333 69.333v21.333c0 38.4-30.933 69.333-69.333 69.333v0c-38.4 0-69.333-30.933-69.333-69.333v-21.333c0-39.467 30.933-69.333 69.333-69.333v0zM731.733 523.733c0 0 0-1.067 0-1.067 0-25.6-34.133-45.867-76.8-45.867-3.2 0-6.4 0-9.6 0 28.8-34.133 45.867-84.267 32-149.333-1.067-3.2-1.067-6.4-2.133-9.6 62.933 4.267 108.8 33.067 108.8 100.267 0 42.667-20.267 81.067-52.267 105.6z" />
<glyph unicode="&#xe929;" glyph-name="line-up" d="M512-64c-281.6 0-512 230.4-512 512 0 283.569 230.4 512 512 512s512-230.4 512-512c0-281.6-230.4-512-512-512zM512 940.308c-271.754 0-492.308-220.554-492.308-492.308s220.554-492.308 492.308-492.308c271.754 0 492.308 220.554 492.308 492.308s-220.554 492.308-492.308 492.308zM452.923 457.846c70.892 0 128 57.108 128 128s-57.108 128-128 128c-70.892 0-128-57.108-128-128s57.108-128 128-128zM569.108 455.877c-27.569-35.446-68.923-57.108-116.185-57.108-51.2 0-96.492 25.6-122.092 64.985-37.415-19.692-64.985-59.077-64.985-104.369v-59.077c0-64.985 53.169-118.154 118.154-118.154h118.154c64.985 0 118.154 53.169 118.154 118.154v59.077c0 41.354-19.692 76.8-51.2 96.492zM712.862 446.031c-19.692-19.692-45.292-33.477-74.831-35.446 13.785-27.569 21.662-57.108 21.662-88.615 0-27.569-5.908-55.138-15.754-78.769h1.969c63.015 0 114.215 51.2 114.215 114.215-1.969 35.446-19.692 66.954-47.262 88.615zM718.769 566.154c0 49.231-39.385 88.615-88.615 88.615-15.754 0-29.538-3.938-41.354-11.815 7.877-21.662 11.815-43.323 11.815-66.954 0-29.538-7.877-59.077-19.692-84.677 13.785-9.846 31.508-13.785 49.231-13.785 49.231 0 88.615 39.385 88.615 88.615z" />
<glyph unicode="&#xe92a;" glyph-name="take-no" d="M512-64c-281.6 0-512 230.4-512 512 0 283.569 230.4 512 512 512s512-230.4 512-512c0-281.6-230.4-512-512-512zM512 940.308c-271.754 0-492.308-220.554-492.308-492.308s220.554-492.308 492.308-492.308c271.754 0 492.308 220.554 492.308 492.308s-220.554 492.308-492.308 492.308zM285.538 251.077c0-21.662 17.723-39.385 39.385-39.385l177.231 78.769 196.923-78.769c21.662 0 39.385 17.723 39.385 39.385v354.462h-452.923v-354.462zM384 526.769h256c11.815 0 19.692-7.877 19.692-19.692s-7.877-19.692-19.692-19.692h-256c-11.815 0-19.692 7.877-19.692 19.692s9.846 19.692 19.692 19.692zM384 428.308h118.154c11.815 0 19.692-7.877 19.692-19.692s-7.877-19.692-19.692-19.692h-118.154c-11.815 0-19.692 7.877-19.692 19.692s9.846 19.692 19.692 19.692zM738.462 684.308h-452.923c-11.815 0-19.692-7.877-19.692-19.692s7.877-19.692 19.692-19.692h452.923c11.815 0 19.692 7.877 19.692 19.692s-7.877 19.692-19.692 19.692z" />
<glyph unicode="&#xe92b;" glyph-name="list" d="M512-64c-281.6 0-512 230.4-512 512 0 283.569 230.4 512 512 512s512-230.4 512-512c0-281.6-230.4-512-512-512zM512 940.308c-271.754 0-492.308-220.554-492.308-492.308s220.554-492.308 492.308-492.308c271.754 0 492.308 220.554 492.308 492.308s-220.554 492.308-492.308 492.308zM620.308 644.923v39.385c0 21.662-17.723 39.385-39.385 39.385h-275.692c-21.662 0-39.385-17.723-39.385-39.385v-354.462c0-21.662 17.723-39.385 39.385-39.385h59.077v315.077c0 21.662 17.723 39.385 39.385 39.385h216.615zM718.769 605.538h-275.692c-21.662 0-39.385-17.723-39.385-39.385v-354.462c0-21.662 17.723-39.385 39.385-39.385h275.692c21.662 0 39.385 17.723 39.385 39.385v354.462c0 21.662-17.723 39.385-39.385 39.385zM580.923 369.231h-78.769c-11.815 0-19.692 7.877-19.692 19.692s7.877 19.692 19.692 19.692h78.769c11.815 0 19.692-7.877 19.692-19.692 0-9.846-7.877-19.692-19.692-19.692zM659.692 467.692h-157.538c-11.815 0-19.692 7.877-19.692 19.692s7.877 19.692 19.692 19.692h157.538c11.815 0 19.692-7.877 19.692-19.692 0-9.846-7.877-19.692-19.692-19.692z" />
<glyph unicode="&#xe92c;" glyph-name="deposit" d="M512-64c-281.6 0-512 230.4-512 512 0 283.569 230.4 512 512 512s512-230.4 512-512c0-281.6-230.4-512-512-512zM512 940.308c-271.754 0-492.308-220.554-492.308-492.308s220.554-492.308 492.308-492.308c271.754 0 492.308 220.554 492.308 492.308s-220.554 492.308-492.308 492.308zM718.769 408.615v256h-137.846l-66.954 59.077-70.892-59.077h-137.846c0 0 0-64.985 0-256s216.615-236.308 216.615-236.308c202.831 47.262 196.923 236.308 196.923 236.308zM590.769 487.385c11.815 0 19.692-7.877 19.692-19.692s-7.877-19.692-19.692-19.692h-59.077v-19.692h59.077c11.815 0 19.692-7.877 19.692-19.692s-7.877-19.692-19.692-19.692h-59.077v-59.077c0-11.815-7.877-19.692-19.692-19.692s-19.692 7.877-19.692 19.692v59.077h-59.077c-11.815 0-19.692 7.877-19.692 19.692s7.877 19.692 19.692 19.692h59.077v19.692h-59.077c-11.815 0-19.692 7.877-19.692 19.692s7.877 19.692 19.692 19.692h51.2l-64.985 64.985c-7.877 7.877-7.877 19.692 0 27.569s19.692 7.877 27.569 0l64.985-64.985 64.985 64.985c7.877 7.877 19.692 7.877 27.569 0s7.877-19.692 0-27.569l-64.985-64.985h51.2z" />
</font>
</defs>
</svg>
